<?xml version="1.0" encoding="UTF-8" standalone="no"?>
<!-- Created with Inkscape (http://www.inkscape.org/) -->

<svg
   id="svg5"
   version="1.1"
   viewBox="0 0 86.844339 25.435074"
   height="25.435074mm"
   width="86.844337mm"
   inkscape:version="1.2.1 (9c6d41e410, 2022-07-14)"
   sodipodi:docname="Three_ISC_spin_measurements.svg"
   inkscape:export-filename="Schwarzschild_wormhole.png"
   inkscape:export-xdpi="132.26852"
   inkscape:export-ydpi="132.26852"
   xmlns:inkscape="http://www.inkscape.org/namespaces/inkscape"
   xmlns:sodipodi="http://sodipodi.sourceforge.net/DTD/sodipodi-0.dtd"
   xmlns="http://www.w3.org/2000/svg"
   xmlns:svg="http://www.w3.org/2000/svg">
  <sodipodi:namedview
     id="namedview7"
     pagecolor="#3e3e3e"
     bordercolor="#000000"
     borderopacity="0.25"
     inkscape:showpageshadow="2"
     inkscape:pageopacity="0"
     inkscape:pagecheckerboard="0"
     inkscape:deskcolor="#d1d1d1"
     inkscape:document-units="px"
     showgrid="false"
     inkscape:zoom="4"
     inkscape:cx="147"
     inkscape:cy="98.5"
     inkscape:window-width="1920"
     inkscape:window-height="1031"
     inkscape:window-x="0"
     inkscape:window-y="25"
     inkscape:window-maximized="1"
     inkscape:current-layer="layer1" />
  <defs
     id="defs2">
    <marker
       style="overflow:visible"
       id="Arrow3"
       refX="4.4170117"
       refY="0.0056158518"
       orient="auto-start-reverse"
       inkscape:stockid="Arrow3"
       markerWidth="9.6028242"
       markerHeight="8.3870182"
       viewBox="0 0 4.2071068 7"
       inkscape:isstock="true"
       inkscape:collect="always"
       preserveAspectRatio="none">
      <path
         style="fill:none;stroke:context-stroke;stroke-width:1;stroke-linecap:round"
         d="M 3,-3 0,0 3,3"
         id="arrow3"
         transform="rotate(180,0.125,0)"
         sodipodi:nodetypes="ccc" />
    </marker>
    <marker
       style="overflow:visible"
       id="Arrow1"
       refX="4.5508142"
       refY="-0.059535597"
       orient="auto-start-reverse"
       inkscape:stockid="Arrow1"
       markerWidth="10.155466"
       markerHeight="7.2713385"
       viewBox="0 0 4.0606602 6.7071068"
       inkscape:isstock="true"
       inkscape:collect="always"
       preserveAspectRatio="none">
      <path
         style="fill:none;stroke:context-stroke;stroke-width:1;stroke-linecap:butt"
         d="M 3,-3 0,0 3,3"
         id="path5057"
         transform="rotate(180,0.125,0)"
         sodipodi:nodetypes="ccc" />
    </marker>
    <marker
       style="overflow:visible"
       id="Arrow1-0"
       refX="-0.088185467"
       refY="0.019378588"
       orient="151.18893433"
       inkscape:stockid="Arrow1"
       markerWidth="9.9865599"
       markerHeight="8.0340548"
       viewBox="0 0 4.0606602 6.7071068"
       inkscape:isstock="true"
       inkscape:collect="always"
       preserveAspectRatio="none">
      <path
         style="fill:none;stroke:context-stroke;stroke-width:1;stroke-linecap:butt"
         d="M 3,-3 0,0 3,3"
         id="path5057-9"
         transform="rotate(180,0.125,0)"
         sodipodi:nodetypes="ccc" />
    </marker>
    <marker
       style="overflow:visible"
       id="Arrow1-0-7"
       refX="-0.6440953"
       refY="7.2993062e-10"
       orient="auto-start-reverse"
       inkscape:stockid="Arrow1"
       markerWidth="10.155466"
       markerHeight="7.2713385"
       viewBox="0 0 4.0606602 6.7071068"
       inkscape:isstock="true"
       inkscape:collect="always"
       preserveAspectRatio="none">
      <path
         style="fill:none;stroke:context-stroke;stroke-width:1;stroke-linecap:butt"
         d="M 3,-3 0,0 3,3"
         id="path5057-9-9"
         transform="rotate(180,0.125,0)"
         sodipodi:nodetypes="ccc" />
    </marker>
    <marker
       style="overflow:visible"
       id="Arrow1-0-3"
       refX="-0.35234728"
       refY="-0.038205598"
       orient="208.40335083"
       inkscape:stockid="Arrow1"
       markerWidth="9.9865599"
       markerHeight="8.0340548"
       viewBox="0 0 4.0606602 6.7071068"
       inkscape:isstock="true"
       inkscape:collect="always"
       preserveAspectRatio="none">
      <path
         style="fill:none;stroke:context-stroke;stroke-width:1;stroke-linecap:butt"
         d="M 3,-3 0,0 3,3"
         id="path5057-9-5"
         transform="rotate(180,0.125,0)"
         sodipodi:nodetypes="ccc" />
    </marker>
  </defs>
  <g
     inkscape:groupmode="layer"
     id="layer2"
     inkscape:label="bg"
     transform="translate(-18.619931,-23.80864)">
    <rect
       style="font-variation-settings:normal;display:inline;opacity:1;vector-effect:none;fill:#0f0f0f;fill-opacity:1;fill-rule:evenodd;stroke:#0f0f0f;stroke-width:0.264583;stroke-linecap:butt;stroke-linejoin:miter;stroke-miterlimit:4;stroke-dasharray:none;stroke-dashoffset:0;stroke-opacity:1;-inkscape-stroke:none;stop-color:#000000;stop-opacity:1"
       id="rect6884"
       width="86.579758"
       height="25.170492"
       x="18.752222"
       y="23.940931"
       sodipodi:insensitive="true" />
  </g>
  <g
     inkscape:label="Layer 1"
     inkscape:groupmode="layer"
     id="layer1"
     transform="translate(-27.809388,-31.769364)"
     style="display:inline">
    <text
       xml:space="preserve"
       style="font-style:normal;font-variant:normal;font-weight:normal;font-stretch:normal;font-size:5.33333px;line-height:normal;font-family:sans-serif;font-variant-ligatures:normal;font-variant-position:normal;font-variant-caps:normal;font-variant-numeric:normal;font-variant-alternates:normal;font-variant-east-asian:normal;font-feature-settings:normal;font-variation-settings:normal;text-indent:0;text-align:start;text-decoration-line:none;text-decoration-style:solid;text-decoration-color:#000000;letter-spacing:normal;word-spacing:normal;text-transform:none;writing-mode:lr-tb;direction:ltr;text-orientation:mixed;dominant-baseline:auto;baseline-shift:baseline;text-anchor:start;white-space:normal;shape-padding:0;shape-margin:0;inline-size:0;opacity:1;vector-effect:none;fill:#ffffff;fill-opacity:1;stroke:none;stroke-width:0.500001;stroke-linecap:butt;stroke-linejoin:miter;stroke-miterlimit:4;stroke-dasharray:none;stroke-dashoffset:0;stroke-opacity:1;-inkscape-stroke:none;stop-color:#000000;stop-opacity:1"
       x="25.8832"
       y="172.76659"
       id="text1420"
       transform="matrix(0.26458333,0,0,0.26458333,35.988666,-10.40324)"><tspan
         sodipodi:role="line"
         id="tspan1418"
         x="25.8832"
         y="172.76659"
         style="font-size:5.33333px">\lightbluetxt{$\mathbf{\vec{B}}$}</tspan></text>
    <path
       style="font-variation-settings:normal;display:inline;fill:none;fill-opacity:1;stroke:#ffffff;stroke-width:0.0661458;stroke-linecap:butt;stroke-linejoin:miter;stroke-miterlimit:4;stroke-dasharray:1.32292, 0.264582, 0.132292, 0.264582;stroke-dashoffset:0;stroke-opacity:1;stop-color:#000000"
       d="M 105.59982,48.025989 H 41.335884"
       id="path7207-2"
       inkscape:transform-center-x="-14.459758"
       inkscape:transform-center-y="-19.842651"
       sodipodi:nodetypes="cc" />
    <path
       style="font-variation-settings:normal;fill:none;fill-opacity:1;stroke:#00a1ff;stroke-width:0.198437;stroke-linecap:butt;stroke-linejoin:miter;stroke-miterlimit:4;stroke-dasharray:none;stroke-dashoffset:0;stroke-opacity:1;marker-mid:url(#Arrow1);stop-color:#000000"
       d="m 45.24068,36.938745 3.691295,6.393512 3.626115,6.280615"
       id="path1472"
       sodipodi:nodetypes="ccc" />
    <path
       style="font-variation-settings:normal;fill:none;fill-opacity:1;stroke:#00a1ff;stroke-width:0.198437;stroke-linecap:butt;stroke-linejoin:miter;stroke-miterlimit:4;stroke-dasharray:none;stroke-dashoffset:0;stroke-opacity:1;stop-color:#000000;marker-mid:url(#Arrow3)"
       d="m 76.311218,36.727836 -3.691295,6.393511 -3.626115,6.280616"
       id="path1472-6"
       sodipodi:nodetypes="ccc" />
    <path
       style="font-variation-settings:normal;fill:none;fill-opacity:1;stroke:#00a1ff;stroke-width:0.198437;stroke-linecap:butt;stroke-linejoin:miter;stroke-miterlimit:4;stroke-dasharray:none;stroke-dashoffset:0;stroke-opacity:1;marker-mid:url(#Arrow1-0-7);stop-color:#000000"
       d="m 99.991089,47.972387 h -7.382591 -7.25223"
       id="path1472-6-5"
       sodipodi:nodetypes="ccc" />
    <text
       xml:space="preserve"
       style="font-style:normal;font-variant:normal;font-weight:normal;font-stretch:normal;font-size:8.00001px;line-height:normal;font-family:sans-serif;font-variant-ligatures:normal;font-variant-position:normal;font-variant-caps:normal;font-variant-numeric:normal;font-variant-alternates:normal;font-variant-east-asian:normal;font-feature-settings:normal;font-variation-settings:normal;text-indent:0;text-align:start;text-decoration-line:none;text-decoration-style:solid;text-decoration-color:#000000;letter-spacing:normal;word-spacing:normal;text-transform:none;writing-mode:lr-tb;direction:ltr;text-orientation:mixed;dominant-baseline:auto;baseline-shift:baseline;text-anchor:start;white-space:normal;shape-padding:0;shape-margin:0;inline-size:0;fill:#ffffff;fill-opacity:1;stroke:none;stroke-width:0.500001;stroke-linecap:butt;stroke-linejoin:miter;stroke-miterlimit:4;stroke-dasharray:none;stroke-dashoffset:0;stroke-opacity:1;stop-color:#000000"
       x="204.12505"
       y="91.456413"
       id="text1883"
       transform="matrix(0.26458334,0,0,0.26458334,0.0923921,17.146926)"><tspan
         sodipodi:role="line"
         id="tspan1881"
         x="204.12505"
         y="91.456413">$2\pi/3$</tspan></text>
    <circle
       style="font-variation-settings:normal;display:inline;fill:#ff2a2a;fill-opacity:1;fill-rule:evenodd;stroke:#ffffff;stroke-width:0.264583;stroke-linecap:butt;stroke-linejoin:miter;stroke-miterlimit:4;stroke-dasharray:none;stroke-dashoffset:0;stroke-opacity:1;stop-color:#000000"
       id="path7343-3"
       cx="51.663193"
       cy="47.995411"
       r="0.75032765" />
    <circle
       style="font-variation-settings:normal;display:inline;fill:#ff2a2a;fill-opacity:1;fill-rule:evenodd;stroke:#ffffff;stroke-width:0.264583;stroke-linecap:butt;stroke-linejoin:miter;stroke-miterlimit:4;stroke-dasharray:none;stroke-dashoffset:0;stroke-opacity:1;stop-color:#000000"
       id="path7343-3-6"
       cx="69.802589"
       cy="47.995411"
       r="0.75032765" />
    <circle
       style="font-variation-settings:normal;display:inline;fill:#ff2a2a;fill-opacity:1;fill-rule:evenodd;stroke:#ffffff;stroke-width:0.264583;stroke-linecap:butt;stroke-linejoin:miter;stroke-miterlimit:4;stroke-dasharray:none;stroke-dashoffset:0;stroke-opacity:1;stop-color:#000000"
       id="path7343-3-6-5"
       cx="87.933876"
       cy="47.995411"
       r="0.75032765" />
    <g
       aria-label="three different (but coupled) electrons"
       transform="matrix(0.26458334,0,0,0.26458334,30.646618,-2.6459222)"
       id="text942"
       style="font-size:8.00001px;baseline-shift:baseline;opacity:1;vector-effect:none;fill:#ff5555;stroke-width:0.500001;stop-color:#000000;stop-opacity:1">
      <path
         d="m 72.861032,213.06365 v 1.24219 h 1.480471 v 0.5586 h -1.480471 v 2.375 q 0,0.53516 0.144532,0.6875 0.148437,0.15234 0.597657,0.15234 h 0.738282 v 0.60157 h -0.738282 q -0.832033,0 -1.148439,-0.3086 -0.316407,-0.3125 -0.316407,-1.13281 v -2.375 h -0.527344 v -0.5586 h 0.527344 v -1.24219 z"
         id="path994" />
      <path
         d="m 78.92354,216.04022 v 2.64063 h -0.718751 v -2.61719 q 0,-0.6211 -0.242188,-0.92969 -0.242188,-0.3086 -0.726563,-0.3086 -0.582032,0 -0.91797,0.3711 -0.335938,0.37109 -0.335938,1.01172 v 2.47266 h -0.722657 v -6.07814 h 0.722657 v 2.38282 q 0.257813,-0.39453 0.605469,-0.58984 0.351563,-0.19532 0.808595,-0.19532 0.753907,0 1.140626,0.46875 0.38672,0.46485 0.38672,1.3711 z"
         id="path996" />
      <path
         d="m 82.892294,214.97772 q -0.121094,-0.0703 -0.265625,-0.10156 -0.140625,-0.0352 -0.312501,-0.0352 -0.609375,0 -0.937501,0.39844 -0.324219,0.39453 -0.324219,1.13672 v 2.30469 h -0.722657 v -4.37501 h 0.722657 v 0.67969 q 0.226563,-0.39844 0.589845,-0.58984 0.363281,-0.19532 0.882813,-0.19532 0.07422,0 0.164063,0.0117 0.08984,0.008 0.199219,0.0274 z"
         id="path998" />
      <path
         d="m 87.212612,216.31366 v 0.35156 H 83.90792 q 0.04687,0.74219 0.445313,1.13281 0.402345,0.38672 1.117189,0.38672 0.414063,0 0.800782,-0.10156 0.390626,-0.10156 0.773439,-0.30469 v 0.67969 q -0.386719,0.16406 -0.79297,0.25 -0.40625,0.0859 -0.82422,0.0859 -1.046876,0 -1.660158,-0.60938 -0.609376,-0.60937 -0.609376,-1.64844 0,-1.07422 0.578126,-1.70312 0.582032,-0.63282 1.566408,-0.63282 0.882814,0 1.394533,0.57032 0.515626,0.5664 0.515626,1.54297 z m -0.718751,-0.21094 q -0.0078,-0.58985 -0.332032,-0.94141 -0.320313,-0.35156 -0.851563,-0.35156 -0.601563,0 -0.964845,0.33984 -0.359376,0.33985 -0.414063,0.95704 z"
         id="path1000" />
      <path
         d="m 92.134493,216.31366 v 0.35156 h -3.304692 q 0.04687,0.74219 0.445313,1.13281 0.402344,0.38672 1.117189,0.38672 0.414063,0 0.800782,-0.10156 0.390626,-0.10156 0.773439,-0.30469 v 0.67969 q -0.38672,0.16406 -0.79297,0.25 -0.406251,0.0859 -0.82422,0.0859 -1.046876,0 -1.660158,-0.60938 -0.609376,-0.60937 -0.609376,-1.64844 0,-1.07422 0.578126,-1.70312 0.582032,-0.63282 1.566408,-0.63282 0.882814,0 1.394533,0.57032 0.515626,0.5664 0.515626,1.54297 z m -0.718751,-0.21094 q -0.0078,-0.58985 -0.332032,-0.94141 -0.320313,-0.35156 -0.851564,-0.35156 -0.601563,0 -0.964844,0.33984 -0.359376,0.33985 -0.414063,0.95704 z"
         id="path1002" />
      <path
         d="m 98.736064,214.96991 v -2.3672 h 0.71875 v 6.07814 h -0.71875 v -0.65625 q -0.226563,0.39062 -0.57422,0.58203 -0.34375,0.1875 -0.828126,0.1875 -0.79297,0 -1.29297,-0.63281 -0.496095,-0.63282 -0.496095,-1.66407 0,-1.03125 0.496095,-1.66406 0.5,-0.63282 1.29297,-0.63282 0.484376,0 0.828126,0.19141 0.347657,0.1875 0.57422,0.57813 z m -2.449222,1.52734 q 0,0.79297 0.324219,1.2461 0.328125,0.44922 0.898439,0.44922 0.570313,0 0.898438,-0.44922 0.328126,-0.45313 0.328126,-1.2461 0,-0.79297 -0.328126,-1.24219 -0.328125,-0.45312 -0.898438,-0.45312 -0.570314,0 -0.898439,0.45312 -0.324219,0.44922 -0.324219,1.24219 z"
         id="path1004" />
      <path
         d="m 100.93528,214.30584 h 0.71876 v 4.37501 h -0.71876 z m 0,-1.70313 h 0.71876 v 0.91016 h -0.71876 z"
         id="path1006" />
      <path
         d="m 108.06811,212.60271 v 0.59766 h -0.6875 q -0.38672,0 -0.53907,0.15625 -0.14843,0.15625 -0.14843,0.5625 v 0.38672 h 1.18359 v 0.5586 h -1.18359 v 3.81641 h -0.72266 v -3.81641 h -1.97266 v 3.81641 h -0.72266 v -3.81641 h -0.6875 v -0.5586 h 0.6875 v -0.30469 q 0,-0.73047 0.33985,-1.0625 0.33984,-0.33594 1.07812,-0.33594 h 0.67969 v 0.59766 h -0.6875 q -0.38672,0 -0.53906,0.15625 -0.14844,0.15625 -0.14844,0.5625 v 0.38672 h 1.97266 v -0.30469 q 0,-0.73047 0.33984,-1.0625 0.33985,-0.33594 1.07813,-0.33594 z"
         id="path1008" />
      <path
         d="m 112.41186,216.31366 v 0.35156 h -3.30469 q 0.0469,0.74219 0.44531,1.13281 0.40235,0.38672 1.11719,0.38672 0.41407,0 0.80079,-0.10156 0.39062,-0.10156 0.77343,-0.30469 v 0.67969 q -0.38672,0.16406 -0.79297,0.25 -0.40625,0.0859 -0.82422,0.0859 -1.04687,0 -1.66015,-0.60938 -0.60938,-0.60937 -0.60938,-1.64844 0,-1.07422 0.57813,-1.70312 0.58203,-0.63282 1.5664,-0.63282 0.88282,0 1.39454,0.57032 0.51562,0.5664 0.51562,1.54297 z m -0.71875,-0.21094 q -0.008,-0.58985 -0.33203,-0.94141 -0.32031,-0.35156 -0.85156,-0.35156 -0.60157,0 -0.96485,0.33984 -0.35937,0.33985 -0.41406,0.95704 z"
         id="path1010" />
      <path
         d="m 116.12671,214.97772 q -0.12109,-0.0703 -0.26563,-0.10156 -0.14062,-0.0352 -0.3125,-0.0352 -0.60937,0 -0.9375,0.39844 -0.32422,0.39453 -0.32422,1.13672 v 2.30469 h -0.72265 v -4.37501 h 0.72265 v 0.67969 q 0.22657,-0.39844 0.58985,-0.58984 0.36328,-0.19532 0.88281,-0.19532 0.0742,0 0.16406,0.0117 0.0898,0.008 0.19922,0.0274 z"
         id="path1012" />
      <path
         d="m 120.44703,216.31366 v 0.35156 h -3.30469 q 0.0469,0.74219 0.44531,1.13281 0.40234,0.38672 1.11719,0.38672 0.41406,0 0.80078,-0.10156 0.39062,-0.10156 0.77344,-0.30469 v 0.67969 q -0.38672,0.16406 -0.79297,0.25 -0.40625,0.0859 -0.82422,0.0859 -1.04688,0 -1.66016,-0.60938 -0.60938,-0.60937 -0.60938,-1.64844 0,-1.07422 0.57813,-1.70312 0.58203,-0.63282 1.56641,-0.63282 0.88281,0 1.39453,0.57032 0.51563,0.5664 0.51563,1.54297 z m -0.71875,-0.21094 q -0.008,-0.58985 -0.33204,-0.94141 -0.32031,-0.35156 -0.85156,-0.35156 -0.60156,0 -0.96484,0.33984 -0.35938,0.33985 -0.41407,0.95704 z"
         id="path1014" />
      <path
         d="m 125.26344,216.04022 v 2.64063 h -0.71875 v -2.61719 q 0,-0.6211 -0.24219,-0.92969 -0.24219,-0.3086 -0.72656,-0.3086 -0.58203,0 -0.91797,0.3711 -0.33594,0.37109 -0.33594,1.01172 v 2.47266 h -0.72266 v -4.37501 h 0.72266 v 0.67969 q 0.25781,-0.39453 0.60547,-0.58984 0.35156,-0.19532 0.8086,-0.19532 0.7539,0 1.14062,0.46875 0.38672,0.46485 0.38672,1.3711 z"
         id="path1016" />
      <path
         d="m 127.40797,213.06365 v 1.24219 h 1.48047 v 0.5586 h -1.48047 v 2.375 q 0,0.53516 0.14453,0.6875 0.14844,0.15234 0.59766,0.15234 h 0.73828 v 0.60157 h -0.73828 q -0.83203,0 -1.14844,-0.3086 -0.3164,-0.3125 -0.3164,-1.13281 v -2.375 h -0.52735 v -0.5586 h 0.52735 v -1.24219 z"
         id="path1018" />
      <path
         d="m 134.10329,212.61053 q -0.52343,0.89844 -0.77734,1.77734 -0.25391,0.87891 -0.25391,1.78126 0,0.90234 0.25391,1.78906 0.25781,0.88281 0.77734,1.77735 h -0.625 q -0.58594,-0.91797 -0.8789,-1.80469 -0.28907,-0.88672 -0.28907,-1.76172 0,-0.8711 0.28907,-1.75391 0.28906,-0.88282 0.8789,-1.80469 z"
         id="path1020" />
      <path
         d="m 138.63846,216.49725 q 0,-0.79297 -0.32813,-1.24219 -0.32422,-0.45312 -0.89453,-0.45312 -0.57032,0 -0.89844,0.45312 -0.32422,0.44922 -0.32422,1.24219 0,0.79297 0.32422,1.2461 0.32812,0.44922 0.89844,0.44922 0.57031,0 0.89453,-0.44922 0.32813,-0.45313 0.32813,-1.2461 z m -2.44532,-1.52734 q 0.22656,-0.39063 0.57031,-0.57813 0.34766,-0.19141 0.82813,-0.19141 0.79687,0 1.29297,0.63282 0.5,0.63281 0.5,1.66406 0,1.03125 -0.5,1.66407 -0.4961,0.63281 -1.29297,0.63281 -0.48047,0 -0.82813,-0.1875 -0.34375,-0.19141 -0.57031,-0.58203 v 0.65625 h -0.72266 v -6.07814 h 0.72266 z"
         id="path1022" />
      <path
         d="m 140.50174,216.95428 v -2.64844 h 0.71875 v 2.6211 q 0,0.62109 0.24219,0.93359 0.24219,0.3086 0.72656,0.3086 0.58203,0 0.91797,-0.3711 0.33985,-0.37109 0.33985,-1.01172 v -2.48047 h 0.71875 v 4.37501 h -0.71875 v -0.67188 q -0.26172,0.39844 -0.60938,0.59375 -0.34375,0.19141 -0.80078,0.19141 -0.75391,0 -1.14453,-0.46875 -0.39063,-0.46875 -0.39063,-1.3711 z m 1.8086,-2.75391 z"
         id="path1024" />
      <path
         d="m 146.35722,213.06365 v 1.24219 h 1.48047 v 0.5586 h -1.48047 v 2.375 q 0,0.53516 0.14453,0.6875 0.14844,0.15234 0.59766,0.15234 h 0.73828 v 0.60157 h -0.73828 q -0.83204,0 -1.14844,-0.3086 -0.31641,-0.3125 -0.31641,-1.13281 v -2.375 h -0.52734 v -0.5586 h 0.52734 v -1.24219 z"
         id="path1026" />
      <path
         d="m 154.47441,214.47381 v 0.67188 q -0.30469,-0.16797 -0.61328,-0.25 -0.30469,-0.0859 -0.61719,-0.0859 -0.69922,0 -1.08594,0.44531 -0.38672,0.44141 -0.38672,1.24219 0,0.80078 0.38672,1.2461 0.38672,0.4414 1.08594,0.4414 0.3125,0 0.61719,-0.082 0.30859,-0.0859 0.61328,-0.25391 v 0.66407 q -0.30078,0.14062 -0.625,0.21094 -0.32032,0.0703 -0.6836,0.0703 -0.98828,0 -1.57031,-0.6211 -0.58203,-0.62109 -0.58203,-1.67578 0,-1.07031 0.58593,-1.68359 0.58985,-0.61329 1.61329,-0.61329 0.33203,0 0.64844,0.0703 0.3164,0.0664 0.61328,0.20312 z"
         id="path1028" />
      <path
         d="m 157.41973,214.80975 q -0.57813,0 -0.91407,0.45312 -0.33594,0.44922 -0.33594,1.23438 0,0.78516 0.33204,1.23828 0.33593,0.44922 0.91797,0.44922 0.57422,0 0.91015,-0.45312 0.33594,-0.45313 0.33594,-1.23438 0,-0.77734 -0.33594,-1.23047 -0.33593,-0.45703 -0.91015,-0.45703 z m 0,-0.60938 q 0.9375,0 1.47265,0.60938 0.53516,0.60937 0.53516,1.6875 0,1.07422 -0.53516,1.6875 -0.53515,0.60938 -1.47265,0.60938 -0.94141,0 -1.47657,-0.60938 -0.53125,-0.61328 -0.53125,-1.6875 0,-1.07813 0.53125,-1.6875 0.53516,-0.60938 1.47657,-0.60938 z"
         id="path1030" />
      <path
         d="m 160.54473,216.95428 v -2.64844 h 0.71875 v 2.6211 q 0,0.62109 0.24219,0.93359 0.24219,0.3086 0.72656,0.3086 0.58204,0 0.91797,-0.3711 0.33985,-0.37109 0.33985,-1.01172 v -2.48047 h 0.71875 v 4.37501 h -0.71875 v -0.67188 q -0.26172,0.39844 -0.60938,0.59375 -0.34375,0.19141 -0.80078,0.19141 -0.75391,0 -1.14453,-0.46875 -0.39063,-0.46875 -0.39063,-1.3711 z m 1.8086,-2.75391 z"
         id="path1032" />
      <path
         d="m 166.38458,218.0246 v 2.32031 h -0.72265 v -6.03907 h 0.72265 v 0.66407 q 0.22657,-0.39063 0.57032,-0.57813 0.34765,-0.19141 0.82812,-0.19141 0.79688,0 1.29297,0.63282 0.5,0.63281 0.5,1.66406 0,1.03125 -0.5,1.66407 -0.49609,0.63281 -1.29297,0.63281 -0.48047,0 -0.82812,-0.1875 -0.34375,-0.19141 -0.57032,-0.58203 z m 2.44532,-1.52735 q 0,-0.79297 -0.32813,-1.24219 -0.32421,-0.45312 -0.89453,-0.45312 -0.57031,0 -0.89844,0.45312 -0.32422,0.44922 -0.32422,1.24219 0,0.79297 0.32422,1.2461 0.32813,0.44922 0.89844,0.44922 0.57032,0 0.89453,-0.44922 0.32813,-0.45313 0.32813,-1.2461 z"
         id="path1034" />
      <path
         d="m 170.7674,212.60271 h 0.71875 v 6.07814 h -0.71875 z"
         id="path1036" />
      <path
         d="m 176.73225,216.31366 v 0.35156 h -3.30469 q 0.0469,0.74219 0.44531,1.13281 0.40235,0.38672 1.11719,0.38672 0.41407,0 0.80078,-0.10156 0.39063,-0.10156 0.77344,-0.30469 v 0.67969 q -0.38672,0.16406 -0.79297,0.25 -0.40625,0.0859 -0.82422,0.0859 -1.04687,0 -1.66015,-0.60938 -0.60938,-0.60937 -0.60938,-1.64844 0,-1.07422 0.57813,-1.70312 0.58203,-0.63282 1.5664,-0.63282 0.88282,0 1.39454,0.57032 0.51562,0.5664 0.51562,1.54297 z m -0.71875,-0.21094 q -0.008,-0.58985 -0.33203,-0.94141 -0.32031,-0.35156 -0.85156,-0.35156 -0.60157,0 -0.96485,0.33984 -0.35937,0.33985 -0.41406,0.95704 z"
         id="path1038" />
      <path
         d="m 180.79085,214.96991 v -2.3672 h 0.71875 v 6.07814 h -0.71875 v -0.65625 q -0.22656,0.39062 -0.57422,0.58203 -0.34375,0.1875 -0.82812,0.1875 -0.79297,0 -1.29297,-0.63281 -0.4961,-0.63282 -0.4961,-1.66407 0,-1.03125 0.4961,-1.66406 0.5,-0.63282 1.29297,-0.63282 0.48437,0 0.82812,0.19141 0.34766,0.1875 0.57422,0.57813 z m -2.44922,1.52734 q 0,0.79297 0.32422,1.2461 0.32812,0.44922 0.89844,0.44922 0.57031,0 0.89844,-0.44922 0.32812,-0.45313 0.32812,-1.2461 0,-0.79297 -0.32812,-1.24219 -0.32813,-0.45312 -0.89844,-0.45312 -0.57032,0 -0.89844,0.45312 -0.32422,0.44922 -0.32422,1.24219 z"
         id="path1040" />
      <path
         d="m 182.87679,212.61053 h 0.625 q 0.58593,0.92187 0.875,1.80469 0.29297,0.88281 0.29297,1.75391 0,0.875 -0.29297,1.76172 -0.28907,0.88672 -0.875,1.80469 h -0.625 q 0.51953,-0.89454 0.77343,-1.77735 0.25782,-0.88672 0.25782,-1.78906 0,-0.90235 -0.25782,-1.78126 -0.2539,-0.8789 -0.77343,-1.77734 z"
         id="path1042" />
      <path
         d="m 192.39633,216.31366 v 0.35156 h -3.30469 q 0.0469,0.74219 0.44531,1.13281 0.40235,0.38672 1.11719,0.38672 0.41406,0 0.80078,-0.10156 0.39063,-0.10156 0.77344,-0.30469 v 0.67969 q -0.38672,0.16406 -0.79297,0.25 -0.40625,0.0859 -0.82422,0.0859 -1.04688,0 -1.66016,-0.60938 -0.60937,-0.60937 -0.60937,-1.64844 0,-1.07422 0.57812,-1.70312 0.58203,-0.63282 1.56641,-0.63282 0.88281,0 1.39453,0.57032 0.51563,0.5664 0.51563,1.54297 z m -0.71875,-0.21094 q -0.008,-0.58985 -0.33203,-0.94141 -0.32032,-0.35156 -0.85157,-0.35156 -0.60156,0 -0.96484,0.33984 -0.35938,0.33985 -0.41406,0.95704 z"
         id="path1044" />
      <path
         d="m 193.57602,212.60271 h 0.71875 v 6.07814 h -0.71875 z"
         id="path1046" />
      <path
         d="m 199.54087,216.31366 v 0.35156 h -3.30469 q 0.0469,0.74219 0.44531,1.13281 0.40234,0.38672 1.11719,0.38672 0.41406,0 0.80078,-0.10156 0.39063,-0.10156 0.77344,-0.30469 v 0.67969 q -0.38672,0.16406 -0.79297,0.25 -0.40625,0.0859 -0.82422,0.0859 -1.04688,0 -1.66016,-0.60938 -0.60937,-0.60937 -0.60937,-1.64844 0,-1.07422 0.57812,-1.70312 0.58203,-0.63282 1.56641,-0.63282 0.88281,0 1.39453,0.57032 0.51563,0.5664 0.51563,1.54297 z m -0.71875,-0.21094 q -0.008,-0.58985 -0.33203,-0.94141 -0.32032,-0.35156 -0.85157,-0.35156 -0.60156,0 -0.96484,0.33984 -0.35938,0.33985 -0.41407,0.95704 z"
         id="path1048" />
      <path
         d="m 203.869,214.47381 v 0.67188 q -0.30469,-0.16797 -0.61328,-0.25 -0.30469,-0.0859 -0.61719,-0.0859 -0.69922,0 -1.08594,0.44531 -0.38672,0.44141 -0.38672,1.24219 0,0.80078 0.38672,1.2461 0.38672,0.4414 1.08594,0.4414 0.3125,0 0.61719,-0.082 0.30859,-0.0859 0.61328,-0.25391 v 0.66407 q -0.30078,0.14062 -0.625,0.21094 -0.32031,0.0703 -0.68359,0.0703 -0.98829,0 -1.57032,-0.6211 -0.58203,-0.62109 -0.58203,-1.67578 0,-1.07031 0.58594,-1.68359 0.58984,-0.61329 1.61328,-0.61329 0.33203,0 0.64844,0.0703 0.3164,0.0664 0.61328,0.20312 z"
         id="path1050" />
      <path
         d="m 205.82993,213.06365 v 1.24219 h 1.48048 v 0.5586 h -1.48048 v 2.375 q 0,0.53516 0.14454,0.6875 0.14843,0.15234 0.59765,0.15234 h 0.73829 v 0.60157 h -0.73829 q -0.83203,0 -1.14844,-0.3086 -0.3164,-0.3125 -0.3164,-1.13281 v -2.375 h -0.52735 v -0.5586 h 0.52735 v -1.24219 z"
         id="path1052" />
      <path
         d="m 210.79089,214.97772 q -0.12109,-0.0703 -0.26563,-0.10156 -0.14062,-0.0352 -0.3125,-0.0352 -0.60937,0 -0.9375,0.39844 -0.32422,0.39453 -0.32422,1.13672 v 2.30469 h -0.72265 v -4.37501 h 0.72265 v 0.67969 q 0.22657,-0.39844 0.58985,-0.58984 0.36328,-0.19532 0.88281,-0.19532 0.0742,0 0.16406,0.0117 0.0898,0.008 0.19922,0.0274 z"
         id="path1054" />
      <path
         d="m 213.06433,214.80975 q -0.57813,0 -0.91407,0.45312 -0.33594,0.44922 -0.33594,1.23438 0,0.78516 0.33204,1.23828 0.33593,0.44922 0.91797,0.44922 0.57422,0 0.91015,-0.45312 0.33594,-0.45313 0.33594,-1.23438 0,-0.77734 -0.33594,-1.23047 -0.33593,-0.45703 -0.91015,-0.45703 z m 0,-0.60938 q 0.9375,0 1.47265,0.60938 0.53516,0.60937 0.53516,1.6875 0,1.07422 -0.53516,1.6875 -0.53515,0.60938 -1.47265,0.60938 -0.94141,0 -1.47657,-0.60938 -0.53125,-0.61328 -0.53125,-1.6875 0,-1.07813 0.53125,-1.6875 0.53516,-0.60938 1.47657,-0.60938 z"
         id="path1056" />
      <path
         d="m 219.90027,216.04022 v 2.64063 h -0.71875 v -2.61719 q 0,-0.6211 -0.24219,-0.92969 -0.24219,-0.3086 -0.72657,-0.3086 -0.58203,0 -0.91797,0.3711 -0.33593,0.37109 -0.33593,1.01172 v 2.47266 h -0.72266 v -4.37501 h 0.72266 v 0.67969 q 0.25781,-0.39453 0.60547,-0.58984 0.35156,-0.19532 0.80859,-0.19532 0.75391,0 1.14063,0.46875 0.38672,0.46485 0.38672,1.3711 z"
         id="path1058" />
      <path
         d="m 224.12294,214.43475 v 0.67969 q -0.30469,-0.15625 -0.63282,-0.23438 -0.32812,-0.0781 -0.67968,-0.0781 -0.53516,0 -0.80469,0.16406 -0.26563,0.16406 -0.26563,0.49219 0,0.25 0.19141,0.39453 0.1914,0.14062 0.76953,0.26953 l 0.24609,0.0547 q 0.76563,0.16406 1.08594,0.46484 0.32422,0.29688 0.32422,0.83203 0,0.60938 -0.48437,0.96485 -0.48047,0.35547 -1.32422,0.35547 -0.35157,0 -0.73438,-0.0703 -0.37891,-0.0664 -0.80078,-0.20313 v -0.74219 q 0.39844,0.20703 0.78516,0.3125 0.38671,0.10157 0.76562,0.10157 0.50781,0 0.78125,-0.17188 0.27344,-0.17578 0.27344,-0.49219 0,-0.29297 -0.19922,-0.44922 -0.19531,-0.15625 -0.86328,-0.30078 l -0.25,-0.0586 q -0.66797,-0.14063 -0.96485,-0.42969 -0.29687,-0.29297 -0.29687,-0.80078 0,-0.61719 0.4375,-0.95313 0.4375,-0.33594 1.24219,-0.33594 0.39844,0 0.75,0.0586 0.35156,0.0586 0.64844,0.17578 z"
         id="path1060" />
    </g>
    <path
       id="path1402"
       style="opacity:1;fill:none;fill-rule:evenodd;stroke:#ffffff;stroke-width:0.079375;stroke-dasharray:none;marker-start:url(#Arrow1-0);stop-color:#000000;stop-opacity:1"
       d="m 48.546582,42.479818 c 0.920079,-0.52678 1.985935,-0.827893 3.12212,-0.827893 3.475411,0 6.292787,2.817377 6.292787,6.292788"
       sodipodi:nodetypes="csc" />
    <text
       xml:space="preserve"
       style="font-style:normal;font-variant:normal;font-weight:normal;font-stretch:normal;font-size:8.00001px;line-height:normal;font-family:sans-serif;font-variant-ligatures:normal;font-variant-position:normal;font-variant-caps:normal;font-variant-numeric:normal;font-variant-alternates:normal;font-variant-east-asian:normal;font-feature-settings:normal;font-variation-settings:normal;text-indent:0;text-align:start;text-decoration-line:none;text-decoration-style:solid;text-decoration-color:#000000;letter-spacing:normal;word-spacing:normal;text-transform:none;writing-mode:lr-tb;direction:ltr;text-orientation:mixed;dominant-baseline:auto;baseline-shift:baseline;text-anchor:start;white-space:normal;shape-padding:0;shape-margin:0;inline-size:0;display:inline;fill:#ffffff;fill-opacity:1;stroke:none;stroke-width:0.500001;stroke-linecap:butt;stroke-linejoin:miter;stroke-miterlimit:4;stroke-dasharray:none;stroke-dashoffset:0;stroke-opacity:1;stop-color:#000000"
       x="204.12505"
       y="91.456413"
       id="text1883-6"
       transform="matrix(0.26458334,0,0,0.26458334,21.72056,20.532385)"><tspan
         sodipodi:role="line"
         id="tspan1881-2"
         x="204.12505"
         y="91.456413">$\pi/3$</tspan></text>
    <path
       id="path1402-9"
       style="display:inline;fill:none;fill-rule:evenodd;stroke:#ffffff;stroke-width:0.079375;stroke-dasharray:none;marker-start:url(#Arrow1-0-3);stop-color:#000000"
       d="m 73.03912,42.649493 c 1.841705,1.097793 3.075411,3.109443 3.075411,5.409241"
       sodipodi:nodetypes="cc" />
  </g>
</svg>
